<mxfile host="app.diagrams.net" modified="2023-12-10T08:22:16.929Z" agent="Mozilla/5.0 (Windows NT 10.0; Win64; x64) AppleWebKit/537.36 (KHTML, like Gecko) Chrome/119.0.0.0 Safari/537.36" version="22.1.7" etag="4JgnIGu8rqoct9c8-C3q" type="github">
  <diagram name="Trang-1" id="Qum-hSboUfA3vxxx5gTc">
    <mxGraphModel>
      <root>
        <mxCell id="0" />
        <mxCell id="1" parent="0" />
      </root>
    </mxGraphModel>
  </diagram>
</mxfile>
